<svg id="visual" viewBox="0 0 450 900" width="450" height="900" xmlns="http://www.w3.org/2000/svg" xmlns:xlink="http://www.w3.org/1999/xlink" version="1.1"><rect x="0" y="0" width="450" height="900" fill="#001122"></rect><path d="M214 900L217.7 892.2C221.3 884.3 228.7 868.7 235.3 852.8C242 837 248 821 253 805.2C258 789.3 262 773.7 253.3 758C244.7 742.3 223.3 726.7 208.5 710.8C193.7 695 185.3 679 189.3 663.2C193.3 647.3 209.7 631.7 218.3 615.8C227 600 228 584 238 568.2C248 552.3 267 536.7 260.5 521C254 505.3 222 489.7 217.7 473.8C213.3 458 236.7 442 248.2 426.2C259.7 410.3 259.3 394.7 257.2 379C255 363.3 251 347.7 236.3 331.8C221.7 316 196.3 300 191.5 284.2C186.7 268.3 202.3 252.7 204.7 236.8C207 221 196 205 208 189.2C220 173.3 255 157.7 272 142C289 126.3 288 110.7 284 94.8C280 79 273 63 255.7 47.2C238.3 31.3 210.7 15.7 196.8 7.8L183 0L450 0L450 7.8C450 15.7 450 31.3 450 47.2C450 63 450 79 450 94.8C450 110.7 450 126.3 450 142C450 157.7 450 173.3 450 189.2C450 205 450 221 450 236.8C450 252.7 450 268.3 450 284.2C450 300 450 316 450 331.8C450 347.7 450 363.3 450 379C450 394.7 450 410.3 450 426.2C450 442 450 458 450 473.8C450 489.7 450 505.3 450 521C450 536.7 450 552.3 450 568.2C450 584 450 600 450 615.8C450 631.7 450 647.3 450 663.2C450 679 450 695 450 710.8C450 726.7 450 742.3 450 758C450 773.7 450 789.3 450 805.2C450 821 450 837 450 852.8C450 868.7 450 884.3 450 892.2L450 900Z" fill="#4839a9" stroke-linecap="round" stroke-linejoin="miter"></path></svg>